<svg id="Layer_1" data-name="Layer 1" xmlns="http://www.w3.org/2000/svg" viewBox="0 0 33.73 26.06"><defs><style>.cls-1{fill:#223352;}</style></defs><path class="cls-1" d="M33.72,25.22c-1.52-.29-2.95-.69-4.42-1a17.64,17.64,0,0,0-11.77,1.61,1.24,1.24,0,0,1-1.31,0A17.58,17.58,0,0,0,4.45,24.26c-1.47.27-2.91.65-4.44,1v-.78C0,17.32,0,10.18,0,3A1,1,0,0,1,.67,2,20.12,20.12,0,0,1,16,1.12a2.6,2.6,0,0,0,1.72,0A20.78,20.78,0,0,1,29.62.67a22.82,22.82,0,0,1,3.76,1.45c.42.18.34.5.34.81V25.22ZM15.44,13.15c0-2.87,0-5.74,0-8.61,0-.49-.11-.76-.61-.91A18.17,18.17,0,0,0,3.6,3.76a1,1,0,0,0-.79,1.12q0,8,0,16c0,.73.19.88.88.73a19.65,19.65,0,0,1,11.18.71c.51.19.59,0,.58-.43C15.44,18.94,15.44,16.05,15.44,13.15Zm2.86,0c0,2.89,0,5.79,0,8.69,0,.5.1.59.58.41a20.88,20.88,0,0,1,3.47-.92,19.47,19.47,0,0,1,7.79.23c.62.13.79,0,.79-.65,0-5,0-10,0-15.06,0-2,0-2-1.94-2.49a18.25,18.25,0,0,0-10.25.37c-.46.14-.41.41-.41.73Z"/></svg>