<svg id="Layer_1" data-name="Layer 1" xmlns="http://www.w3.org/2000/svg" viewBox="0 0 22.44 24.96"><defs><style>.cls-1{fill:#233353;}.cls-2{fill:#273755;}</style></defs><path class="cls-1" d="M0,12.65v-8A4.4,4.4,0,0,1,4.7,0H19.27c2.06,0,3.17,1.08,3.17,3.09,0,4.43,0,8.87,0,13.3a2.89,2.89,0,0,1-1.32,2.69.58.58,0,0,0-.28.57c0,.85,0,1.71,0,2.56,0,.31.08.41.41.46.85.14,1.24.62,1.15,1.3s-.57,1-1.4,1H4.06A3.85,3.85,0,0,1,0,21Q0,16.84,0,12.65ZM11.78,2.34H4.53A2,2,0,0,0,2.35,4.49V11.8c0,1.73,0,3.45,0,5.18,0,.2-.15.57.35.43a9.61,9.61,0,0,1,2.73-.23H19.18c.85,0,.87,0,.87-.84V3.16c0-.78,0-.81-.82-.82Zm-.9,20.31c2.34,0,4.67,0,7,0,.49,0,.63-.14.6-.6,0-.69,0-1.38,0-2.06,0-.37-.09-.51-.5-.51-4.65,0-9.29,0-13.93,0a1.58,1.58,0,1,0,0,3.15Z"/><path class="cls-2" d="M12,11.69H7.8A1.23,1.23,0,0,1,6.51,11,1.15,1.15,0,0,1,7.64,9.39c2.91,0,5.82,0,8.72,0a1.11,1.11,0,0,1,1.22,1.17,1.07,1.07,0,0,1-1.19,1.11c-1.45,0-2.9,0-4.36,0Z"/><path class="cls-2" d="M12,5.51h4.24c.8,0,1.27.39,1.3,1.06s-.36,1.14-1.17,1.21-1.32,0-2,0q-3.11,0-6.22,0a3.7,3.7,0,0,1-.88-.09,1.07,1.07,0,0,1-.86-1.27,1.08,1.08,0,0,1,1.16-.94Z"/></svg>