<svg xmlns="http://www.w3.org/2000/svg" fill="none" viewBox="-2.285 -2.285 64 64" id="Button-Play--Streamline-Core.svg" height="64" width="64"><g id="Button-Play--Streamline-Core.svg"><path id="Vector" stroke="#0067c0" stroke-linecap="round" stroke-linejoin="round" d="M6.09543795 52.3404255c0.01523955 0.884658 0.2726139 1.748091 0.7441060500000001 2.4964844999999998 0.47149215 0.7483935 1.1391033000000002 1.353306 1.9302439500000002 1.7485155 0.79003695 0.446574 1.6820388 0.6813225 2.58945 0.6813225s1.7994555 -0.23474850000000003 2.58945 -0.6813225l36.71920755000001 -22.710580200000003c0.7989090000000001 -0.38489415 1.473015 -0.9874719 1.945059 -1.7384124 0.4716195 -0.7509405 0.7216500000000001 -1.61976465 0.7216500000000001 -2.5065876 0 -0.8868229500000001 -0.2500305 -1.7556471 -0.7216500000000001 -2.5065876 -0.47204399999999996 -0.7509405 -1.14615 -1.35351825 -1.945059 -1.7384124L13.94868795 2.8438868100000003c-0.7899944999999999 -0.446391465 -1.6820388 -0.6809701650000001 -2.58945 -0.6809701650000001s-1.79941305 0.2345787 -2.58945 0.6809701650000001c-0.79114065 0.395587305 -1.4587518 1.000448865 -1.9302439500000002 1.74886359 -0.47149215 0.7483935 -0.7288665 1.6117416000000002 -0.7441060500000001 2.4961449V52.3404255Z" stroke-width="4.57"></path></g></svg>