<svg xmlns="http://www.w3.org/2000/svg" fill="none" viewBox="-2.285 -2.285 64 64" id="Cog--Streamline-Core.svg" height="64" width="64"><g id="Cog--Streamline-Core.svg"><path id="Vector" stroke="#0067c0" stroke-linecap="round" stroke-linejoin="round" d="m22.2015198 9.55125 1.82535 -4.711950000000001c0.3078474 -0.79778832 0.84946695 -1.484005305 1.55388225 -1.96878006C26.285209800000004 2.38574943 27.119607000000002 2.125025775 27.974719800000003 2.1225h3.4808999999999997c0.8551128 0.002525775 1.6895524499999999 0.26324943 2.39396775 0.74801994 0.70445775 0.484774755 1.24603485 1.17099174 1.55388225 1.96878006l1.82535 4.711950000000001 6.1975302 3.5658 5.0091 -0.7641c0.8341425 -0.11321415 1.6831425000000002 0.02406915 2.439177 0.3944454 0.75561 0.37037624999999996 1.3842945 0.9570777 1.805823 1.6856046l1.6980000000000002 2.9715c0.43511249999999996 0.7401157500000001 0.6359009999999999 1.5947616 0.5751975 2.4511479 -0.0607035 0.8563863 -0.379503 1.67427045 -0.9147975 2.3457021l-3.09885 3.9478500000000003v7.1316l3.18375 3.9478500000000003c0.5352945 0.67143165 0.854094 1.4893158 0.9147975 2.3457021 0.0607035 0.8563863 -0.14008500000000002 1.71103215 -0.5751975 2.4511479l-1.6980000000000002 2.9715c-0.42152850000000003 0.728442 -1.050213 1.315101 -1.805823 1.6856895 -0.7560345 0.370164 -1.6050345 0.507702 -2.439177 0.3943605l-5.0091 -0.7641 -6.1975302 3.5658 -1.82535 4.711950000000001c-0.3078474 0.7976355 -0.8494245 1.4840520000000001 -1.55388225 1.968831 -0.7044153000000001 0.484779 -1.53885495 0.745422 -2.39396775 0.747969h-3.5658c-0.8551128 -0.002547 -1.68951 -0.26319 -2.39396775 -0.747969 -0.7044153000000001 -0.484779 -1.24603485 -1.1711954999999998 -1.55388225 -1.968831l-1.82535 -4.711950000000001 -6.1977 -3.5658 -5.0091 0.7641c-0.8340576 0.11334150000000001 -1.6829726999999999 -0.024196500000000003 -2.4388374 -0.3943605 -0.75582225 -0.37058850000000004 -1.3845067500000001 -0.9572475 -1.8061626000000002 -1.6856895l-1.6980000000000002 -2.9715c-0.43511249999999996 -0.7401157500000001 -0.6355613999999999 -1.5947616 -0.5749428000000001 -2.4511479 0.0606186 -0.8563863 0.379503 -1.67427045 0.9145428 -2.3457021l3.09885 -3.9478500000000003V26.1492l-3.18375 -3.9478500000000003c-0.5350398000000001 -0.67143165 -0.8539242 -1.4893158 -0.9145428 -2.3457021 -0.0606186 -0.8563863 0.1398303 -1.71103215 0.5749428000000001 -2.4511479l1.6980000000000002 -2.9715c0.42165585 -0.7285269 1.0503403500000001 -1.31522835 1.8061626000000002 -1.6856046 0.7558647000000001 -0.37037624999999996 1.6047798 -0.5076595500000001 2.4388374 -0.3944454l5.0091 0.7641 6.2826 -3.5658Zm-0.97635 20.16375c0 1.6791522 0.4979385 3.3206088000000005 1.4308197000000002 4.7167893 0.93292365 1.3961805 2.2588494000000003 2.4843438 3.81018465 3.1269519000000003 1.5513777 0.64256565 3.25841955 0.8107101000000001 4.905309750000001 0.48312345 1.6468902 -0.32758665000000003 3.1596808500000004 -1.13617425 4.347049800000001 -2.3235432 1.1873265 -1.1873265 1.9959141 -2.70011715 2.32350075 -4.34700735 0.32758665000000003 -1.6468902 0.15948465 -3.35393205 -0.48312345 -4.905309750000001 -0.64256565 -1.55133525 -1.7307714 -2.8773034500000003 -3.1269519000000003 -3.81018465C33.0357786 21.7229385 31.394322 21.225 29.7151698 21.225c-2.2516753499999997 0 -4.4111493 0.89446395 -6.00332145 2.48667855 -1.5921721500000001 1.5921721500000001 -2.48667855 3.7516461000000003 -2.48667855 6.00332145v0Z" stroke-width="4.57"></path></g></svg>