<svg xmlns="http://www.w3.org/2000/svg" viewBox="-576 -448 576 384">
	<path d="M -576 -128 c 0 35.3 28.7 64 64 64 H -205.3 c 17 -0 33.3 -6.7 45.3 -18.7 L -9.4 -233.4 c 6 -6 9.4 -14.1 9.4 -22.6 s -3.4 -16.6 -9.4 -22.6 L -160 -429.3 c -12 -12 -28.3 -18.7 -45.3 -18.7 H -512 c -35.3 0 -64 28.7 -64 64 V -128 z M -271 -175 c -9.4 9.4 -24.6 9.4 -33.9 0 l -47 -47 l -47 47 c -9.4 9.4 -24.6 9.4 -33.9 0 s -9.4 -24.6 -0 -33.9 l 47 -47 l -47 -47 c -9.4 -9.4 -9.4 -24.6 -0 -33.9 s 24.6 -9.4 33.9 -0 l 47 47 l 47 -47 c 9.4 -9.4 24.6 -9.4 33.9 -0 s 9.4 24.6 0 33.9 l -47 47 l 47 47 c 9.4 9.4 9.4 24.6 0 33.9 z" fill="#F24942"/>
</svg>