<svg xmlns="http://www.w3.org/2000/svg" viewBox="0.0025838 2.24 35.84 31.36">
	<path d="M 17.92 2.24 c 0.994 0 1.911 0.525 2.415 1.386 l 15.12 25.76 c 0.511 0.868 0.511 1.939 0.014 2.807 S 34.041 33.6 33.04 33.6 H 2.8 c -1.001 0 -1.932 -0.539 -2.429 -1.407 s -0.49 -1.946 0.014 -2.807 l 15.12 -25.76 C 16.009 2.765 16.926 2.24 17.92 2.24 z m 0 8.96 c -0.931 0 -1.68 0.749 -1.68 1.68 V 20.72 c 0 0.931 0.749 1.68 1.68 1.68 s 1.68 -0.749 1.68 -1.68 V 12.88 c 0 -0.931 -0.749 -1.68 -1.68 -1.68 z m 2.24 15.68 a 2.24 2.24 90 1 0 -4.48 0 a 2.24 2.24 90 1 0 4.48 0 z" fill="#c03d33"/>
</svg>