<svg xmlns="http://www.w3.org/2000/svg" viewBox="-512 0 512 512">
	<path d="M 0 344 V 488 c 0 13.3 -10.7 24 -24 24 H -168 c -9.7 0 -18.5 -5.8 -22.2 -14.8 s -1.7 -19.3 5.2 -26.2 l 39 -39 l -87 -87 c -9.4 -9.4 -9.4 -24.6 -0 -33.9 l 32 -32 c 9.4 -9.4 24.6 -9.4 33.9 -0 l 87 87 L -41 327 c 6.9 -6.9 17.2 -8.9 26.2 -5.2 S 0 334.3 0 344 z M -512 168 V 24 c -0 -13.3 10.7 -24 24 -24 H -344 c 9.7 -0 18.5 5.8 22.2 14.8 s 1.7 19.3 -5.2 26.2 l -39 39 l 87 87 c 9.4 9.4 9.4 24.6 0 33.9 l -32 32 c -9.4 9.4 -24.6 9.4 -33.9 0 l -87 -87 l -39 39 c -6.9 6.9 -17.2 8.9 -26.2 5.2 s -14.8 -12.5 -14.8 -22.2 z" fill="#a5a5a3"/>
</svg>