<svg xmlns="http://www.w3.org/2000/svg" viewBox="0 0 76.81 75.6">
	<path d="M 7.2 38.4 C 7.2 21.165 21.165 7.2 38.4 7.2 c 9.465 0 17.94 4.215 23.67 10.875 c 1.29 1.515 3.57 1.68 5.07 0.39 s 1.68 -3.57 0.39 -5.07 C 60.495 5.19 50.055 0 38.4 0 C 17.19 0 0 17.19 0 38.4 v 6 c 0 1.995 1.605 3.6 3.6 3.6 s 3.6 -1.605 3.6 -3.6 V 38.4 z m 68.775 -7.935 c -0.405 -1.95 -2.325 -3.195 -4.26 -2.775 s -3.195 2.325 -2.775 4.26 c 0.435 2.085 0.675 4.245 0.675 6.465 v 6 c 0 1.995 1.605 3.6 3.6 3.6 s 3.6 -1.605 3.6 -3.6 V 38.4 c 0 -2.715 -0.285 -5.37 -0.825 -7.935 z M 38.4 12 c -2.85 0 -5.61 0.45 -8.175 1.29 c -2.28 0.75 -2.805 3.555 -1.245 5.385 c 1.065 1.245 2.82 1.62 4.41 1.185 c 1.59 -0.435 3.27 -0.66 5.01 -0.66 c 10.605 0 19.2 8.595 19.2 19.2 v 3.735 c 0 3.78 -0.225 7.545 -0.66 11.295 c -0.255 2.19 1.41 4.17 3.63 4.17 c 1.77 0 3.285 -1.29 3.495 -3.045 c 0.495 -4.11 0.75 -8.25 0.75 -12.405 V 38.4 c 0 -14.58 -11.82 -26.4 -26.4 -26.4 z M 22.605 22.305 c -1.365 -1.59 -3.795 -1.71 -5.085 -0.06 C 14.055 26.7 12 32.31 12 38.4 v 3.735 c 0 3.63 -0.39 7.26 -1.17 10.785 C 10.32 55.26 12.015 57.6 14.415 57.6 c 1.575 0 2.985 -1.05 3.33 -2.595 c 0.96 -4.215 1.455 -8.52 1.455 -12.87 V 38.4 c 0 -4.08 1.275 -7.86 3.435 -10.965 c 1.08 -1.56 1.2 -3.69 -0.03 -5.13 z M 38.4 24 c -7.95 0 -14.4 6.45 -14.4 14.4 v 3.735 c 0 5.385 -0.69 10.725 -2.07 15.915 c -0.57 2.145 1.005 4.35 3.225 4.35 c 1.425 0 2.685 -0.93 3.06 -2.31 c 1.575 -5.85 2.385 -11.88 2.385 -17.955 V 38.4 c 0 -4.305 3.495 -7.8 7.8 -7.8 s 7.8 3.495 7.8 7.8 v 3.735 c 0 5.445 -0.525 10.86 -1.56 16.185 c -0.405 2.085 1.155 4.08 3.27 4.08 c 1.53 0 2.85 -1.05 3.15 -2.55 c 1.155 -5.82 1.74 -11.745 1.74 -17.715 V 38.4 c 0 -7.95 -6.45 -14.4 -14.4 -14.4 z m 3.6 14.4 c 0 -1.995 -1.605 -3.6 -3.6 -3.6 s -3.6 1.605 -3.6 3.6 v 3.735 c 0 8.985 -1.65 17.895 -4.875 26.28 l -0.885 2.295 c -0.72 1.86 0.21 3.945 2.07 4.65 s 3.945 -0.21 4.65 -2.07 l 0.885 -2.295 C 40.185 61.785 42 52.005 42 42.135 V 38.4 z" fill="#4070f4"/>
</svg>