<svg xmlns="http://www.w3.org/2000/svg" fill="none" viewBox="-2.285 -2.285 64 64" id="Task-List--Streamline-Core.svg" height="64" width="64"><g id="Task-List--Streamline-Core.svg"><path id="Vector" stroke="#0067c0" stroke-linecap="round" stroke-linejoin="round" d="M49.746306000000004 53.0625c0 1.125774 -0.44742299999999996 2.205702 -1.2433605 3.0016395 -0.796362 0.7959375 -1.8758655000000002 1.2433605 -3.0016395 1.2433605H7.29609375c-1.1258589 0 -2.20557465 -0.44742299999999996 -3.00168195 -1.2433605 -0.796077585 -0.7959375 -1.24331805 -1.8758655000000002 -1.24331805 -3.0016395v-46.695c0 -1.1258589 0.44724046500000003 -2.20557465 1.24331805 -3.001669215C5.0905191 2.569740465 6.17023485 2.1225 7.29609375 2.1225h23.711678550000002c1.12581645 0 2.20557465 0.44724046500000003 3.0016395 1.2433307850000002L48.5029455 17.85918195c0.7959375 0.79606485 1.2433605 1.8758230500000002 1.2433605 3.0016395V53.0625Z" stroke-width="4.57"></path><path id="Vector_2" stroke="#0067c0" stroke-linecap="round" stroke-linejoin="round" d="m28.7698083 27.061875 10.6125 0" stroke-width="4.57"></path><path id="Vector_3" stroke="#0067c0" stroke-linecap="round" stroke-linejoin="round" d="m28.7698083 41.78671875 10.6125 0" stroke-width="4.57"></path><path id="Vector_4" stroke="#0067c0" stroke-linecap="round" stroke-linejoin="round" d="m12.3536292 41.54628195 3.5568430500000003 3.5568430500000003 5.9280576 -8.2993146" stroke-width="4.57"></path><path id="Vector_5" stroke="#0067c0" stroke-linecap="round" stroke-linejoin="round" d="m12.3536292 26.556125700000003 3.5568430500000003 3.5568430500000003 5.9280576 -8.2993146" stroke-width="4.57"></path></g></svg>