<svg xmlns="http://www.w3.org/2000/svg" fill="none" viewBox="-2.285 -2.285 64 64" id="User-Circle-Single--Streamline-Core.svg" height="64" width="64"><g id="User-Circle-Single--Streamline-Core.svg"><path id="Vector" stroke="#0067c0" stroke-linecap="round" stroke-linejoin="round" d="M29.715 33.96c5.861113950000001 0 10.6125 -4.75138605 10.6125 -10.6125S35.57611395 12.735 29.715 12.735 19.1025 17.48638605 19.1025 23.3475 23.853886050000003 33.96 29.715 33.96Z" stroke-width="4.57"></path><path id="Vector_2" stroke="#0067c0" stroke-linecap="round" stroke-linejoin="round" d="M11.5887651 50.5155c1.8942888000000002 -3.1094625000000002 4.55662545 -5.6793855 7.73103645 -7.4622855 3.174411 -1.7834094 6.7541346 -2.7200262 10.39511355 -2.7200262 3.64097895 0 7.22070255 0.9366168 10.39511355 2.7200262 3.17453835 1.7829 5.83657785 4.352823000000001 7.73112135 7.4622855" stroke-width="4.57"></path><path id="Vector_3" stroke="#0067c0" stroke-linecap="round" stroke-linejoin="round" d="M29.715 57.307500000000005c15.2391255 0 27.5925 -12.3533745 27.5925 -27.5925C57.307500000000005 14.47608675 44.9541255 2.1225 29.715 2.1225 14.47608675 2.1225 2.1225 14.47608675 2.1225 29.715c0 15.2391255 12.35358675 27.5925 27.5925 27.5925Z" stroke-width="4.57"></path></g></svg>